<svg width="48" height="48" viewBox="0 0 48 48" fill="none" xmlns="http://www.w3.org/2000/svg">
<path d="M30 44V36C30.2783 33.4946 29.5599 30.9802 28 29C34 29 40 25 40 18C40.16 15.5 39.46 13.04 38 11C38.56 8.7 38.56 6.3 38 4C38 4 36 4 32 7C26.72 6 21.28 6 16 7C12 4 10 4 10 4C9.40001 6.3 9.40001 8.7 10 11C8.54376 13.0318 7.83696 15.5056 8.00001 18C8.00001 25 14 29 20 29C19.22 29.98 18.64 31.1 18.3 32.3C17.96 33.5 17.86 34.76 18 36V44" stroke="#D29744" stroke-width="4" stroke-linecap="round" stroke-linejoin="round"/>
<path d="M18 36C8.98 40 8 32 4 32" stroke="#D29744" stroke-width="4" stroke-linecap="round" stroke-linejoin="round"/>
</svg>
