<svg width="40" height="40" viewBox="0 0 40 40" fill="none" xmlns="http://www.w3.org/2000/svg">
<path d="M25 36.6667V30C25.2318 27.9122 24.6332 25.8169 23.3333 24.1667C28.3333 24.1667 33.3333 20.8333 33.3333 15C33.4667 12.9167 32.8833 10.8667 31.6666 9.16667C32.1333 7.25 32.1333 5.25 31.6666 3.33334C31.6666 3.33334 30 3.33334 26.6666 5.83334C22.2666 5 17.7333 5 13.3333 5.83334C9.99998 3.33334 8.33331 3.33334 8.33331 3.33334C7.83331 5.25 7.83331 7.25 8.33331 9.16667C7.11977 10.8598 6.53077 12.9213 6.66665 15C6.66665 20.8333 11.6666 24.1667 16.6666 24.1667C16.0166 24.9833 15.5333 25.9167 15.25 26.9167C14.9666 27.9167 14.8833 28.9667 15 30V36.6667" stroke="#D29744" stroke-width="3" stroke-linecap="round" stroke-linejoin="round"/>
<path d="M15 30C7.48331 33.3333 6.66665 26.6667 3.33331 26.6667" stroke="#D29744" stroke-width="3" stroke-linecap="round" stroke-linejoin="round"/>
</svg>
