<svg width="40" height="40" viewBox="0 0 40 40" fill="none" xmlns="http://www.w3.org/2000/svg">
<path d="M26.6667 13.3333C29.3189 13.3333 31.8624 14.3869 33.7378 16.2623C35.6131 18.1376 36.6667 20.6812 36.6667 23.3333V35H30V23.3333C30 22.4493 29.6488 21.6014 29.0237 20.9763C28.3986 20.3512 27.5507 20 26.6667 20C25.7826 20 24.9348 20.3512 24.3097 20.9763C23.6845 21.6014 23.3334 22.4493 23.3334 23.3333V35H16.6667V23.3333C16.6667 20.6812 17.7203 18.1376 19.5956 16.2623C21.471 14.3869 24.0145 13.3333 26.6667 13.3333Z" stroke="#D29744" stroke-width="3" stroke-linecap="round" stroke-linejoin="round"/>
<path d="M9.99998 15H3.33331V35H9.99998V15Z" stroke="#D29744" stroke-width="3" stroke-linecap="round" stroke-linejoin="round"/>
<path d="M6.66665 10C8.5076 10 9.99998 8.50762 9.99998 6.66667C9.99998 4.82572 8.5076 3.33334 6.66665 3.33334C4.8257 3.33334 3.33331 4.82572 3.33331 6.66667C3.33331 8.50762 4.8257 10 6.66665 10Z" stroke="#D29744" stroke-width="3" stroke-linecap="round" stroke-linejoin="round"/>
</svg>
